<svg xmlns="http://www.w3.org/2000/svg" viewBox="0 0 1600 1000">
  <defs>
    <linearGradient id="bg" x1="0" y1="0" x2="1" y2="1">
      <stop offset="0" stop-color="#f8fbfb"/>
      <stop offset="0.52" stop-color="#e8f4f5"/>
      <stop offset="1" stop-color="#dfeaf7"/>
    </linearGradient>
    <linearGradient id="screen" x1="0" y1="0" x2="1" y2="1">
      <stop offset="0" stop-color="#253447"/>
      <stop offset="1" stop-color="#121a24"/>
    </linearGradient>
    <filter id="shadow" x="-20%" y="-20%" width="140%" height="150%">
      <feDropShadow dx="0" dy="28" stdDeviation="28" flood-color="#20302f" flood-opacity=".18"/>
    </filter>
  </defs>
  <rect width="1600" height="1000" fill="url(#bg)"/>
  <circle cx="1160" cy="164" r="270" fill="#2e8cff" opacity=".08"/>
  <circle cx="356" cy="790" r="290" fill="#16a36b" opacity=".09"/>
  <path d="M0 805 C260 760 400 900 640 850 C920 790 1040 660 1600 740 L1600 1000 L0 1000 Z" fill="#ffffff" opacity=".72"/>
  <g filter="url(#shadow)">
    <rect x="690" y="190" width="620" height="390" rx="34" fill="url(#screen)"/>
    <rect x="732" y="236" width="180" height="120" rx="18" fill="#2992ff" opacity=".92"/>
    <rect x="936" y="236" width="330" height="34" rx="17" fill="#eef9ff" opacity=".16"/>
    <rect x="936" y="294" width="250" height="18" rx="9" fill="#eef9ff" opacity=".28"/>
    <rect x="936" y="330" width="296" height="18" rx="9" fill="#eef9ff" opacity=".17"/>
    <rect x="736" y="400" width="530" height="126" rx="20" fill="#0d131c" opacity=".92"/>
    <path d="M772 434 h170 M772 464 h310 M772 494 h246" stroke="#9ae6bd" stroke-width="12" stroke-linecap="round" opacity=".9"/>
    <path d="M1080 434 h120 M1120 464 h64 M1030 494 h170" stroke="#8bbcff" stroke-width="12" stroke-linecap="round" opacity=".8"/>
  </g>
  <g filter="url(#shadow)">
    <rect x="252" y="290" width="388" height="430" rx="32" fill="#ffffff"/>
    <circle cx="346" cy="410" r="54" fill="#dce9ef"/>
    <path d="M324 428 c32 -28 66 -26 92 2 v44 h-92z" fill="#9cb5c5"/>
    <rect x="432" y="360" width="142" height="20" rx="10" fill="#243540" opacity=".8"/>
    <rect x="432" y="404" width="116" height="16" rx="8" fill="#7b8c98" opacity=".38"/>
    <rect x="308" y="530" width="280" height="24" rx="12" fill="#e8eff2"/>
    <rect x="308" y="580" width="238" height="24" rx="12" fill="#e8eff2"/>
    <rect x="308" y="630" width="178" height="24" rx="12" fill="#22b777" opacity=".78"/>
  </g>
  <g fill="none" stroke-linecap="round">
    <path d="M650 468 C710 430 704 382 740 336" stroke="#20b878" stroke-width="7" opacity=".65"/>
    <path d="M650 548 C740 564 760 490 822 470" stroke="#2e8cff" stroke-width="7" opacity=".55"/>
    <path d="M572 410 C654 258 770 248 884 292" stroke="#b9c8d4" stroke-width="5" stroke-dasharray="12 18"/>
  </g>
  <g filter="url(#shadow)">
    <circle cx="650" cy="506" r="76" fill="#12202a"/>
    <circle cx="650" cy="506" r="52" fill="#20b878"/>
    <path d="M626 510 l16 16 34 -42" fill="none" stroke="#fff" stroke-width="14" stroke-linecap="round" stroke-linejoin="round"/>
  </g>
</svg>
