<svg xmlns="http://www.w3.org/2000/svg" viewBox="0 0 1600 1000">
  <defs>
    <linearGradient id="bg2" x1="0" y1="0" x2="1" y2="1">
      <stop offset="0" stop-color="#f9faf7"/>
      <stop offset=".52" stop-color="#eef4f1"/>
      <stop offset="1" stop-color="#e3ecf4"/>
    </linearGradient>
    <filter id="shadow2" x="-20%" y="-20%" width="140%" height="150%">
      <feDropShadow dx="0" dy="24" stdDeviation="26" flood-color="#24342e" flood-opacity=".16"/>
    </filter>
  </defs>
  <rect width="1600" height="1000" fill="url(#bg2)"/>
  <circle cx="1284" cy="244" r="330" fill="#18a970" opacity=".08"/>
  <circle cx="464" cy="784" r="260" fill="#2d7bff" opacity=".08"/>
  <g filter="url(#shadow2)">
    <rect x="540" y="170" width="730" height="520" rx="36" fill="#18242f"/>
    <rect x="580" y="214" width="650" height="54" rx="16" fill="#233241"/>
    <circle cx="614" cy="241" r="8" fill="#ff625c"/>
    <circle cx="642" cy="241" r="8" fill="#f2b842"/>
    <circle cx="670" cy="241" r="8" fill="#22c174"/>
    <rect x="590" y="310" width="590" height="24" rx="12" fill="#9ae6bd" opacity=".78"/>
    <rect x="590" y="360" width="492" height="18" rx="9" fill="#e7f6ff" opacity=".26"/>
    <rect x="590" y="404" width="558" height="18" rx="9" fill="#e7f6ff" opacity=".18"/>
    <rect x="590" y="448" width="432" height="18" rx="9" fill="#e7f6ff" opacity=".24"/>
    <rect x="590" y="512" width="270" height="74" rx="18" fill="#203140"/>
    <path d="M626 550 h190" stroke="#5cb6ff" stroke-width="13" stroke-linecap="round" opacity=".8"/>
  </g>
  <g filter="url(#shadow2)">
    <rect x="240" y="250" width="360" height="430" rx="34" fill="#fff"/>
    <circle cx="330" cy="356" r="40" fill="#dce9ef"/>
    <rect x="392" y="324" width="128" height="20" rx="10" fill="#21333d" opacity=".72"/>
    <rect x="392" y="366" width="166" height="16" rx="8" fill="#80919d" opacity=".34"/>
    <circle cx="330" cy="480" r="40" fill="#dce9ef"/>
    <rect x="392" y="448" width="152" height="20" rx="10" fill="#21333d" opacity=".72"/>
    <rect x="392" y="490" width="130" height="16" rx="8" fill="#80919d" opacity=".34"/>
    <rect x="302" y="586" width="236" height="44" rx="22" fill="#20b878" opacity=".85"/>
  </g>
  <g fill="none" stroke-linecap="round">
    <path d="M598 456 C678 410 710 390 792 394" stroke="#20b878" stroke-width="8" opacity=".7"/>
    <path d="M600 554 C720 620 840 632 964 588" stroke="#2e8cff" stroke-width="8" opacity=".58"/>
    <path d="M1130 336 C1224 396 1268 486 1218 582" stroke="#c8d2d8" stroke-width="6" stroke-dasharray="14 18"/>
  </g>
  <g filter="url(#shadow2)">
    <circle cx="1216" cy="612" r="80" fill="#fff"/>
    <path d="M1168 612 h96 M1216 564 v96" stroke="#20b878" stroke-width="18" stroke-linecap="round"/>
    <circle cx="1008" cy="588" r="54" fill="#2d7bff"/>
    <path d="M984 590 h48 M1008 566 v48" stroke="#fff" stroke-width="11" stroke-linecap="round" opacity=".92"/>
  </g>
</svg>
