<svg width="960" height="600" viewBox="0 0 960 600" fill="none" xmlns="http://www.w3.org/2000/svg">
  <rect width="960" height="600" rx="34" fill="#F7FAF6"/>
  <path d="M115 476C196 535 339 556 481 539C656 519 792 431 828 314C865 192 763 93 603 66C434 38 260 84 167 187C75 289 54 432 115 476Z" fill="#E8F4ED"/>
  <path d="M228 178C323 118 474 107 602 143C714 174 791 240 792 320C793 419 677 494 512 507C364 519 218 475 155 397C94 322 128 242 228 178Z" fill="#FBFDFB" stroke="#D8E5DC" stroke-width="2"/>

  <g opacity="0.95">
    <path d="M284 232L478 304" stroke="#86B79A" stroke-width="4" stroke-linecap="round" stroke-dasharray="9 14"/>
    <path d="M678 214L534 296" stroke="#7C9FD1" stroke-width="4" stroke-linecap="round" stroke-dasharray="9 14"/>
    <path d="M308 422L479 348" stroke="#CFAC57" stroke-width="4" stroke-linecap="round" stroke-dasharray="9 14"/>
  </g>

  <g filter="url(#shadow)">
    <rect x="378" y="226" width="192" height="164" rx="28" fill="#17342B"/>
    <rect x="398" y="248" width="152" height="94" rx="18" fill="#23483C"/>
    <circle cx="474" cy="295" r="35" fill="#2A9950"/>
    <path d="M458 295L470 307L495 280" stroke="white" stroke-width="9" stroke-linecap="round" stroke-linejoin="round"/>
    <rect x="424" y="360" width="62" height="12" rx="6" fill="#8CD1A4"/>
    <rect x="497" y="360" width="42" height="12" rx="6" fill="#6F9182"/>
  </g>

  <g filter="url(#shadowSmall)">
    <rect x="150" y="173" width="214" height="124" rx="22" fill="#FFFFFF"/>
    <rect x="170" y="193" width="174" height="74" rx="14" fill="#172620"/>
    <circle cx="196" cy="217" r="5" fill="#F36E5C"/>
    <circle cx="214" cy="217" r="5" fill="#F0B94B"/>
    <circle cx="232" cy="217" r="5" fill="#3DBD69"/>
    <rect x="191" y="241" width="92" height="7" rx="3.5" fill="#6ED18D"/>
    <rect x="191" y="256" width="126" height="7" rx="3.5" fill="#445B52"/>
    <circle cx="324" cy="232" r="24" fill="#EAF6EF" stroke="#CFE2D5" stroke-width="2"/>
    <path d="M312 232H336M324 220V244" stroke="#2A9950" stroke-width="5" stroke-linecap="round"/>
    <rect x="185" y="281" width="74" height="10" rx="5" fill="#DDEBE2"/>
  </g>

  <g filter="url(#shadowSmall)">
    <rect x="626" y="146" width="198" height="132" rx="22" fill="#FFFFFF"/>
    <rect x="653" y="176" width="144" height="82" rx="14" fill="#F2F7F4"/>
    <rect x="678" y="199" width="92" height="10" rx="5" fill="#D8E5DC"/>
    <rect x="678" y="220" width="62" height="10" rx="5" fill="#D8E5DC"/>
    <circle cx="648" cy="242" r="20" fill="#EAF0FB"/>
    <path d="M641 243L647 249L658 235" stroke="#496FAA" stroke-width="5" stroke-linecap="round" stroke-linejoin="round"/>
    <rect x="696" y="272" width="76" height="10" rx="5" fill="#DDEBE2"/>
  </g>

  <g filter="url(#shadowSmall)">
    <rect x="176" y="381" width="248" height="112" rx="22" fill="#FFFFFF"/>
    <rect x="199" y="407" width="85" height="60" rx="13" fill="#1B3028"/>
    <path d="M216 428L231 437L216 446" stroke="#8CD1A4" stroke-width="5" stroke-linecap="round" stroke-linejoin="round"/>
    <rect x="244" y="443" width="34" height="6" rx="3" fill="#8CD1A4"/>
    <rect x="304" y="417" width="84" height="9" rx="4.5" fill="#D8E5DC"/>
    <rect x="304" y="438" width="58" height="9" rx="4.5" fill="#D8E5DC"/>
    <rect x="304" y="459" width="74" height="9" rx="4.5" fill="#D8E5DC"/>
  </g>

  <g filter="url(#shadowSmall)">
    <rect x="573" y="395" width="220" height="98" rx="22" fill="#FFFFFF"/>
    <circle cx="626" cy="444" r="26" fill="#E8F4ED" stroke="#CFE2D5" stroke-width="2"/>
    <path d="M615 444C629 431 640 431 653 444C640 458 628 458 615 444Z" fill="#2A9950"/>
    <rect x="671" y="424" width="88" height="9" rx="4.5" fill="#D8E5DC"/>
    <rect x="671" y="445" width="54" height="9" rx="4.5" fill="#D8E5DC"/>
    <rect x="671" y="466" width="72" height="9" rx="4.5" fill="#D8E5DC"/>
  </g>

  <g>
    <circle cx="477" cy="304" r="8" fill="#2A9950"/>
    <circle cx="534" cy="296" r="8" fill="#496FAA"/>
    <circle cx="479" cy="348" r="8" fill="#C79B33"/>
  </g>

  <defs>
    <filter id="shadow" x="342" y="194" width="264" height="236" filterUnits="userSpaceOnUse" color-interpolation-filters="sRGB">
      <feFlood flood-opacity="0" result="BackgroundImageFix"/>
      <feColorMatrix in="SourceAlpha" type="matrix" values="0 0 0 0 0 0 0 0 0 0 0 0 0 0 0 0 0 0 127 0" result="hardAlpha"/>
      <feOffset dy="4"/>
      <feGaussianBlur stdDeviation="18"/>
      <feComposite in2="hardAlpha" operator="out"/>
      <feColorMatrix type="matrix" values="0 0 0 0 0.12 0 0 0 0 0.22 0 0 0 0 0.18 0 0 0 0.22 0"/>
      <feBlend mode="normal" in2="BackgroundImageFix" result="effect1_dropShadow_1_2"/>
      <feBlend mode="normal" in="SourceGraphic" in2="effect1_dropShadow_1_2" result="shape"/>
    </filter>
    <filter id="shadowSmall" x="128" y="124" width="716" height="525" filterUnits="userSpaceOnUse" color-interpolation-filters="sRGB">
      <feFlood flood-opacity="0" result="BackgroundImageFix"/>
      <feColorMatrix in="SourceAlpha" type="matrix" values="0 0 0 0 0 0 0 0 0 0 0 0 0 0 0 0 0 0 127 0" result="hardAlpha"/>
      <feOffset dy="6"/>
      <feGaussianBlur stdDeviation="11"/>
      <feComposite in2="hardAlpha" operator="out"/>
      <feColorMatrix type="matrix" values="0 0 0 0 0.16 0 0 0 0 0.24 0 0 0 0 0.2 0 0 0 0.14 0"/>
      <feBlend mode="normal" in2="BackgroundImageFix" result="effect1_dropShadow_1_2"/>
      <feBlend mode="normal" in="SourceGraphic" in2="effect1_dropShadow_1_2" result="shape"/>
    </filter>
  </defs>
</svg>
